<?xml version="1.0" standalone="no"?>
<!DOCTYPE svg PUBLIC "-//W3C//DTD SVG 20010904//EN"
 "http://www.w3.org/TR/2001/REC-SVG-20010904/DTD/svg10.dtd">
<svg version="1.0" xmlns="http://www.w3.org/2000/svg"
 width="642.000000pt" height="642.000000pt" viewBox="0 0 642.000000 642.000000"
 preserveAspectRatio="xMidYMid meet">
<metadata>
Created by potrace 1.14, written by Peter Selinger 2001-2017
</metadata>
<g transform="translate(0.000000,642.000000) scale(0.100000,-0.100000)"
fill="#000000" stroke="none">
<path d="M2978 6415 c-2 -1 -43 -5 -93 -9 -49 -3 -101 -8 -115 -10 -14 -3 -47
-7 -75 -11 -27 -3 -57 -8 -65 -10 -8 -2 -28 -7 -45 -10 -232 -45 -489 -132
-730 -245 -213 -100 -255 -124 -241 -137 3 -4 82 -8 174 -9 192 -2 227 -6 378
-44 274 -71 541 -174 864 -334 l174 -87 46 17 c25 10 106 46 180 81 74 35 166
78 205 95 38 17 88 38 110 48 157 69 432 157 597 190 147 29 209 35 377 33
l154 -1 -59 35 c-261 157 -685 309 -1049 377 -25 5 -104 15 -170 22 -53 6
-611 14 -617 9z"/>
<path d="M1025 5517 c-72 -18 -311 -279 -448 -490 -109 -167 -145 -230 -238
-419 -95 -193 -217 -547 -243 -708 -3 -19 -8 -46 -11 -60 -3 -14 -8 -41 -11
-60 -2 -19 -7 -46 -9 -60 -2 -14 -7 -45 -10 -70 -3 -25 -8 -52 -10 -60 -2 -8
-7 -40 -10 -70 -4 -30 -10 -84 -14 -120 -13 -101 -10 -305 5 -415 7 -55 16
-120 19 -145 3 -25 10 -70 15 -100 5 -30 12 -71 15 -90 3 -19 11 -55 16 -80 6
-25 13 -58 16 -75 14 -85 110 -403 148 -490 80 -181 103 -230 137 -295 77
-143 253 -420 277 -434 11 -7 10 1 -8 64 -15 51 -19 185 -8 280 9 83 14 109
45 240 65 273 225 646 452 1055 46 83 88 159 94 170 6 11 18 31 27 45 9 14 53
88 99 164 245 411 526 814 840 1206 l132 165 -44 39 c-291 266 -375 338 -538
466 -36 28 -74 59 -85 68 -101 82 -341 211 -475 255 -96 32 -126 36 -175 24z"/>
<path d="M5305 5510 c-264 -69 -557 -261 -968 -634 -173 -156 -232 -216 -222
-223 6 -5 26 -28 45 -53 47 -61 61 -78 91 -114 160 -192 521 -704 708 -1003
14 -23 42 -68 62 -100 196 -314 454 -796 572 -1068 80 -187 160 -439 181 -575
3 -19 8 -46 11 -60 13 -58 14 -267 1 -327 -7 -35 -10 -63 -6 -63 24 0 172 234
295 465 145 272 284 713 322 1017 10 83 10 773 0 863 -62 543 -312 1135 -666
1580 -136 171 -292 316 -338 314 -10 0 -49 -8 -88 -19z"/>
<path d="M3149 3778 c-140 -95 -389 -317 -699 -623 -166 -163 -289 -290 -412
-426 -92 -102 -302 -349 -343 -404 -16 -22 -32 -42 -36 -45 -4 -4 -67 -87
-131 -175 -4 -5 -18 -23 -31 -40 -117 -153 -294 -454 -362 -615 -15 -36 -34
-80 -42 -97 -29 -67 -55 -191 -59 -278 -8 -205 64 -300 396 -519 185 -122 214
-139 378 -221 255 -126 607 -243 842 -280 25 -4 54 -9 65 -11 220 -41 582 -47
870 -13 428 49 726 139 1100 333 379 197 641 391 706 523 118 241 -137 809
-655 1457 -193 241 -338 399 -736 796 -374 375 -685 654 -758 681 -13 5 -40
-7 -93 -43z"/>
</g>
</svg>
